<?xml version="1.0" encoding="UTF-8"?>
<svg width="500" height="500" version="1.1" viewBox="0 0 500.00001 500.00001" xmlns="http://www.w3.org/2000/svg">
 <g transform="translate(0 -552.36)" fill="#555">
  <path d="m269.73 630.56c-94.886-10.895-180.64 57.194-191.53 152.08-10.895 94.886 57.194 180.64 152.08 191.53s180.64-57.194 191.53-152.08c10.895-94.886-57.194-180.64-152.08-191.53zm-1.7746 15.455c86.351 9.915 148.31 87.953 138.4 174.3-9.915 86.351-87.953 148.31-174.3 138.4-86.351-9.915-148.31-87.953-138.4-174.3 9.915-86.351 87.953-148.31 174.3-138.4z"/>
  <g transform="matrix(1.5749 0 0 1.5749 -204.86 -430.34)">
   <path transform="translate(0 552.36)" d="m303.57 167.92c-1.0038 0.0702-1.953 0.6237-2.4961 1.5644l-2.0039 3.4688 33.439 19.307 2.0039-3.4688c0.86903-1.5052 0.35676-3.4181-1.1484-4.2871l-28.006-16.168c-0.56445-0.32588-1.1868-0.45812-1.7891-0.41601zm-6.5859 8.6465-42.156 73.018 33.439 19.305 42.156-73.016-33.439-19.307zm-44.242 76.631-1.9863 3.4394c-0.86903 1.5052-0.35677 3.4161 1.1484 4.2852l28.006 16.168c1.5052 0.86903 3.4161 0.35676 4.2852-1.1484l1.9863-3.4394-33.439-19.305z"/>
   <path d="m249 850.66c-1.0612-0.61275-0.68138-3.6463-0.68138-3.6463l0.59844-5.8633 0.59864-5.8636 0.59845-5.863 0.59855-5.8633 0.59844-5.8633 0.59864-5.8633 0.59845-5.8633 4.18 2.4133 4.18 2.4133 4.18 2.4133 4.18 2.4133 4.18 2.4133 4.18 2.4133 4.18 2.4133 4.18 2.4133-4.7784 3.45-4.7786 3.45-4.7784 3.45-4.7785 3.45-4.7784 3.45-4.7786 3.45-4.7784 3.45s-2.4374 1.8458-3.4986 1.233z"/>
  </g>
 </g>
</svg>
