<svg width="1366" height="768" xmlns="http://www.w3.org/2000/svg" xmlns:xlink="http://www.w3.org/1999/xlink">
 <defs>
  <linearGradient id="b">
   <stop offset="0" stop-color="#165016"/>
   <stop offset="1" stop-color="#2d8916"/>
  </linearGradient>
  <linearGradient id="c">
   <stop offset="0" stop-color="#5b7821"/>
   <stop offset="1" stop-color="#62a721"/>
  </linearGradient>
  <linearGradient xlink:href="#b" y2="0.006599" y1="0.96693" x2="0.536544" x1="0.539643" id="a"/>
  <linearGradient xlink:href="#b" y2="0.106664" y1="0.971429" x2="0.616941" x1="0.472441" id="o"/>
  <linearGradient y2="-0.592634" y1="1.315529" x2="-0.366722" x1="1.014977" id="p">
   <stop offset="0" stop-opacity="0.66234" stop-color="#7c6f1f"/>
   <stop offset="1" stop-opacity="0.5" stop-color="#8a9137"/>
  </linearGradient>
  <linearGradient y2="-0.003468" y1="0.998259" x2="0.434724" x1="0.485159" id="q">
   <stop offset="0" stop-color="#6d9a2c"/>
   <stop offset="1" stop-color="#6fb12c"/>
  </linearGradient>
  <linearGradient xlink:href="#c" y2="-0.49076" y1="1.014145" x2="0.812888" x1="0.812888" id="r"/>
  <linearGradient y2="-0.024715" y1="1.009762" x2="0.438256" x1="0.438256" id="s">
   <stop offset="0" stop-color="#4b7829"/>
   <stop offset="1" stop-color="#569221"/>
  </linearGradient>
  <linearGradient xlink:href="#c" y2="-0.465989" y1="1.013927" x2="0.438288" x1="0.438288" id="t"/>
  <linearGradient y2="1.212627" y1="0.011655" x2="0.621113" x1="0.634495" id="u">
   <stop offset="0" stop-color="#3c783f"/>
   <stop offset="1" stop-color="#4ba747"/>
  </linearGradient>
  <linearGradient xlink:href="#b" y2="0.110279" y1="0.869444" x2="0.607582" x1="0.5664" id="v"/>
  <linearGradient y2="1.182158" y1="0.116142" x2="0.315097" x1="0.303996" id="w">
   <stop offset="0" stop-color="#3c785e"/>
   <stop offset="1" stop-color="#4ba75e"/>
  </linearGradient>
  <linearGradient y2="1.26896" y1="0.066784" x2="0.481432" x1="0.465086" id="x">
   <stop offset="0" stop-color="#afe"/>
   <stop offset="1" stop-color="#dcd19a"/>
  </linearGradient>
  <linearGradient xlink:href="#b" y2="0.006599" y1="0.96693" x2="0.463456" x1="0.460357" id="svg_1"/>
  <linearGradient xlink:href="#b" y2="0.006599" y1="0.96693" x2="0.463456" x1="0.460357" id="svg_2"/>
  <linearGradient xlink:href="#b" y2="0.006599" y1="0.96693" x2="0.463456" x1="0.460357" id="svg_3"/>
  <linearGradient xlink:href="#b" y2="0.006599" y1="0.96693" x2="0.463456" x1="0.460357" id="svg_4"/>
  <linearGradient xlink:href="#b" y2="0.006599" y1="0.96693" x2="0.463456" x1="0.460357" id="svg_5"/>
  <linearGradient xlink:href="#b" y2="0.006599" y1="0.96693" x2="0.463456" x1="0.460357" id="svg_6"/>
  <linearGradient xlink:href="#b" y2="0.006599" y1="0.96693" x2="0.463456" x1="0.460357" id="svg_7"/>
  <linearGradient xlink:href="#b" y2="0.006599" y1="0.96693" x2="0.463456" x1="0.460357" id="svg_8"/>
  <linearGradient xlink:href="#b" y2="0.006599" y1="0.96693" x2="0.463456" x1="0.460357" id="svg_9"/>
  <linearGradient xlink:href="#b" y2="0.006599" y1="0.96693" x2="0.463456" x1="0.460357" id="svg_10"/>
  <linearGradient xlink:href="#b" y2="0.006599" y1="0.96693" x2="0.463456" x1="0.460357" id="svg_11"/>
  <linearGradient xlink:href="#b" y2="0.006599" y1="0.96693" x2="0.463456" x1="0.460357" id="svg_12"/>
  <linearGradient xlink:href="#b" y2="0.006599" y1="0.96693" x2="0.463456" x1="0.460357" id="svg_13"/>
  <linearGradient xlink:href="#b" y2="0.006599" y1="0.96693" x2="0.463456" x1="0.460357" id="svg_14"/>
  <linearGradient xlink:href="#b" y2="0.006599" y1="0.96693" x2="0.463456" x1="0.460357" id="svg_15"/>
  <linearGradient xlink:href="#b" y2="0.006599" y1="0.96693" x2="0.463456" x1="0.460357" id="svg_16"/>
  <linearGradient xlink:href="#b" y2="0.006599" y1="0.96693" x2="0.463456" x1="0.460357" id="svg_17"/>
  <linearGradient xlink:href="#b" y2="0.006599" y1="0.96693" x2="0.463456" x1="0.460357" id="svg_18"/>
  <linearGradient xlink:href="#b" y2="0.006599" y1="0.96693" x2="0.463456" x1="0.460357" id="svg_19"/>
  <linearGradient xlink:href="#b" y2="0.006599" y1="0.96693" x2="0.463456" x1="0.460357" id="svg_20"/>
  <linearGradient xlink:href="#b" y2="0.006599" y1="0.96693" x2="0.463456" x1="0.460357" id="svg_21"/>
  <linearGradient xlink:href="#b" y2="0.006599" y1="0.96693" x2="0.463456" x1="0.460357" id="svg_22"/>
  <linearGradient xlink:href="#b" y2="0.006599" y1="0.96693" x2="0.463456" x1="0.460357" id="svg_23"/>
  <linearGradient xlink:href="#b" y2="0.006599" y1="0.96693" x2="0.463456" x1="0.460357" id="svg_24"/>
  <linearGradient xlink:href="#b" y2="0.006599" y1="0.96693" x2="0.463456" x1="0.460357" id="svg_25"/>
  <linearGradient xlink:href="#b" y2="0.006599" y1="0.96693" x2="0.463456" x1="0.460357" id="svg_26"/>
  <linearGradient xlink:href="#b" y2="0.006599" y1="0.96693" x2="0.463456" x1="0.460357" id="svg_27"/>
  <linearGradient xlink:href="#b" y2="0.006599" y1="0.96693" x2="0.463456" x1="0.460357" id="svg_28"/>
  <linearGradient xlink:href="#b" y2="0.006599" y1="0.96693" x2="0.463456" x1="0.460357" id="svg_29"/>
  <linearGradient xlink:href="#b" y2="0.006599" y1="0.96693" x2="0.463456" x1="0.460357" id="svg_30"/>
  <linearGradient xlink:href="#b" y2="0.006599" y1="0.96693" x2="0.463456" x1="0.460357" id="svg_31"/>
  <linearGradient xlink:href="#b" y2="0.006599" y1="0.96693" x2="0.463456" x1="0.460357" id="svg_32"/>
  <linearGradient xlink:href="#b" y2="0.006599" y1="0.96693" x2="0.463456" x1="0.460357" id="svg_33"/>
  <linearGradient xlink:href="#b" y2="0.006599" y1="0.96693" x2="0.463456" x1="0.460357" id="svg_34"/>
  <linearGradient xlink:href="#b" y2="0.006599" y1="0.96693" x2="0.463456" x1="0.460357" id="svg_35"/>
  <linearGradient xlink:href="#b" y2="0.006599" y1="0.96693" x2="0.463456" x1="0.460357" id="svg_36"/>
  <linearGradient xlink:href="#b" y2="0.006599" y1="0.96693" x2="0.463456" x1="0.460357" id="svg_37"/>
  <linearGradient xlink:href="#b" y2="0.006599" y1="0.96693" x2="0.463456" x1="0.460357" id="svg_38"/>
  <linearGradient xlink:href="#b" y2="0.006599" y1="0.96693" x2="0.463456" x1="0.460357" id="svg_39"/>
  <linearGradient xlink:href="#b" y2="0.006599" y1="0.96693" x2="0.463456" x1="0.460357" id="svg_40"/>
  <linearGradient xlink:href="#b" y2="0.006599" y1="0.96693" x2="0.463456" x1="0.460357" id="svg_41"/>
  <linearGradient xlink:href="#b" y2="0.006599" y1="0.96693" x2="0.463456" x1="0.460357" id="svg_42"/>
  <linearGradient xlink:href="#b" y2="0.006599" y1="0.96693" x2="0.463456" x1="0.460357" id="svg_43"/>
  <linearGradient xlink:href="#b" y2="0.006599" y1="0.96693" x2="0.463456" x1="0.460357" id="svg_44"/>
  <linearGradient xlink:href="#b" y2="0.006599" y1="0.96693" x2="0.463456" x1="0.460357" id="svg_45"/>
  <linearGradient xlink:href="#b" y2="0.006599" y1="0.96693" x2="0.463456" x1="0.460357" id="svg_46"/>
  <linearGradient xlink:href="#b" y2="0.006599" y1="0.96693" x2="0.463456" x1="0.460357" id="svg_47"/>
  <linearGradient xlink:href="#b" y2="0.006599" y1="0.96693" x2="0.463456" x1="0.460357" id="svg_48"/>
  <linearGradient xlink:href="#b" y2="0.006599" y1="0.96693" x2="0.463456" x1="0.460357" id="svg_49"/>
  <linearGradient xlink:href="#b" y2="0.006599" y1="0.96693" x2="0.463456" x1="0.460357" id="svg_50"/>
  <linearGradient xlink:href="#b" y2="0.006599" y1="0.96693" x2="0.463456" x1="0.460357" id="svg_51"/>
  <linearGradient xlink:href="#b" y2="0.006599" y1="0.96693" x2="0.463456" x1="0.460357" id="svg_52"/>
  <linearGradient xlink:href="#b" y2="0.006599" y1="0.96693" x2="0.463456" x1="0.460357" id="svg_53"/>
  <linearGradient xlink:href="#b" y2="0.006599" y1="0.96693" x2="0.463456" x1="0.460357" id="svg_54"/>
 </defs>
 <g>
  <title>background</title>
  <rect fill="none" id="canvas_background" height="402" width="582" y="-1" x="-1"/>
 </g>
 <g>
  <title>Layer 1</title>
  <g id="svg_55">
   <rect id="svg_56" fill="url(#x)" height="568.33" width="1380.8" y="-4.209985" x="-5.8231"/>
   <path id="svg_57" fill="url(#w)" d="m1120,604.520015l-1127.4,3.36l2.5595,-167.67c61.816,-3.45 123.66,-98.64 173.58,-90.32c22.069,3.6785 120.23,69.615 174.65,76.627c57.786,7.4467 146.96,-70.039 201.24,-34.698c44.646,29.07 143.33,17.115 204.52,36.329c132.22,41.511 246.7,105.48 370.86,176.37l-0.0095,0.002z"/>
   <path id="svg_58" fill="#504416" d="m549.04,531.100015l11.23,9.0846l-10.766,12.857l-11.23,-9.0846l10.766,-12.857z"/>
   <g id="svg_59" transform="matrix(1.0049,0,0,1.0049,34.799,0.4862) ">
    <rect id="svg_60" fill="#2b2200" height="4.5939" width="3.3178" y="527.186566" x="636.25"/>
    <path id="svg_61" fill="#504416" d="m637.02,513.146566l-6.3804,0.25521l0,15.313l6.3804,0l5.1043,-8.1669l-5.1043,-7.40131z"/>
    <path id="svg_62" fill="#786721" d="m637.02,512.896566l3.8626,-4.6579l4.0491,5.637l0,15.1l-7.9117,0l0,-16.0791z"/>
    <path id="svg_63" fill="#a80" d="m641.87,511.366566c2.297,1.7865 1.2761,3.3178 2.8074,3.3178s3.8282,1.5313 1.5313,-1.2761c-2.297,-2.8074 -0.51043,-3.0626 -3.573,-4.8491s-0.76565,-1.2761 -5.3596,-1.2761c-4.5939,0 -3.8282,-0.51043 -4.8491,1.0209s-0.76565,0.25522 -1.7865,3.0626c-1.0209,2.8074 -3.0626,3.8282 0.51043,3.8282s1.7865,2.0417 4.3387,0.25521s2.5522,-0.51043 3.573,-3.0626c1.0209,-2.5522 1.7865,-4.3387 2.0417,-3.3178c0.25522,1.0209 0.76565,2.297 0.76565,2.297l0.00002,-0.00001z"/>
    <g id="svg_64">
     <g id="svg_65" fill="#504416">
      <path id="svg_66" d="m640.33565,509.318786l-10.464,-10.974l5.1043,-1.0209l5.3597,11.9949z"/>
      <path id="svg_67" d="m640.33565,509.578786l6.1252,12.506l4.5939,-1.2761l-10.7191,-11.2299z"/>
      <path id="svg_68" d="m640.59565,509.578786l12.761,-2.0417l-3.8282,-5.3596l-8.9328,7.4013z"/>
      <path id="svg_69" d="m641.10565,509.578786l0,0.25522l-9.1878,10.974l-3.0626,-6.1252l12.2504,-5.10402z"/>
     </g>
     <path id="svg_70" fill="#b3b3b3" d="m641.1013,509.063566l-10.464,-10.974l5.1043,-1.0209l5.3597,11.9949z"/>
     <path id="svg_71" fill="#b3b3b3" d="m641.1013,509.323566l6.1252,12.506l4.5939,-1.2761l-10.7191,-11.2299z"/>
     <path id="svg_72" fill="#b3b3b3" d="m641.3613,509.323566l12.761,-2.0417l-3.8282,-5.3596l-8.9328,7.4013z"/>
     <path id="svg_73" fill="#b3b3b3" d="m641.8713,509.323566l0,0.25522l-9.1878,10.974l-3.0626,-6.1252l12.2504,-5.10402z"/>
    </g>
   </g>
   <g id="svg_74" transform="matrix(1.0049,0,0,1.0049,-5.8231,-3.8662) ">
    <rect id="svg_75" fill="#2b2200" height="4.5939" width="3.3178" y="527.186566" x="636.25"/>
    <path id="svg_76" fill="#504416" d="m637.02,513.146566l-6.3804,0.25521l0,15.313l6.3804,0l5.1043,-8.1669l-5.1043,-7.40131z"/>
    <path id="svg_77" fill="#786721" d="m637.02,512.896566l3.8626,-4.6579l4.0491,5.637l0,15.1l-7.9117,0l0,-16.0791z"/>
    <path id="svg_78" fill="#a80" d="m641.87,511.366566c2.297,1.7865 1.2761,3.3178 2.8074,3.3178s3.8282,1.5313 1.5313,-1.2761c-2.297,-2.8074 -0.51043,-3.0626 -3.573,-4.8491s-0.76565,-1.2761 -5.3596,-1.2761c-4.5939,0 -3.8282,-0.51043 -4.8491,1.0209s-0.76565,0.25522 -1.7865,3.0626c-1.0209,2.8074 -3.0626,3.8282 0.51043,3.8282s1.7865,2.0417 4.3387,0.25521s2.5522,-0.51043 3.573,-3.0626c1.0209,-2.5522 1.7865,-4.3387 2.0417,-3.3178c0.25522,1.0209 0.76565,2.297 0.76565,2.297l0.00002,-0.00001z"/>
    <g id="svg_79">
     <g id="svg_80" fill="#504416">
      <path id="svg_81" d="m640.33565,509.318786l-10.464,-10.974l5.1043,-1.0209l5.3597,11.9949z"/>
      <path id="svg_82" d="m640.33565,509.578786l6.1252,12.506l4.5939,-1.2761l-10.7191,-11.2299z"/>
      <path id="svg_83" d="m640.59565,509.578786l12.761,-2.0417l-3.8282,-5.3596l-8.9328,7.4013z"/>
      <path id="svg_84" d="m641.10565,509.578786l0,0.25522l-9.1878,10.974l-3.0626,-6.1252l12.2504,-5.10402z"/>
     </g>
     <path id="svg_85" fill="#b3b3b3" d="m641.1013,509.063566l-10.464,-10.974l5.1043,-1.0209l5.3597,11.9949z"/>
     <path id="svg_86" fill="#b3b3b3" d="m641.1013,509.323566l6.1252,12.506l4.5939,-1.2761l-10.7191,-11.2299z"/>
     <path id="svg_87" fill="#b3b3b3" d="m641.3613,509.323566l12.761,-2.0417l-3.8282,-5.3596l-8.9328,7.4013z"/>
     <path id="svg_88" fill="#b3b3b3" d="m641.8713,509.323566l0,0.25522l-9.1878,10.974l-3.0626,-6.1252l12.2504,-5.10402z"/>
    </g>
   </g>
   <path id="svg_89" fill="#786721" d="m520.02,539.490015l11.23,9.0846l-10.766,12.857l-11.23,-9.0846l10.766,-12.857z"/>
   <path id="svg_90" fill="#a80" d="m549.57,532.220015l-6.1734,7.1291l-4.0992,0.1282l6.8989,-6.5785s0.65551,-3.1232 3.0241,-3.231c2.3686,-0.10797 7.6273,-1.2616 11.447,-0.26813c3.8195,0.99344 2.2229,-1.1712 5.0577,2.1238c9.0999,10.577 15.805,12.568 8.8831,12.65c-6.9222,0.0816 -5.2091,3.097 -10.354,0.33514c-5.1451,-2.7619 -2.8901,1.0459 -7.1466,-3.1377s-4.0438,-4.2128 -5.6404,-6.3774s-1.8966,-2.7735 -1.8966,-2.7735l-0.0006,-0.00001z"/>
   <path id="svg_91" fill="#504416" d="m575.63,529.260015l-5.0907,-5.4277l-3.0073,1.969l-1.4305,4.2873l0,11.186l9.5285,-0.82857l4.1742,-4.9543l-4.1742,-6.23173z"/>
   <path id="svg_92" fill="#786721" d="m575.67,529.260015l21.543,0l0,11.186l-21.543,0l0,-11.186z"/>
   <path id="svg_93" fill="#a80" d="m520.67,540.790015l6.4628,6.868l4.101,-0.0413l-7.1648,-6.2878s-0.784,-3.0934 -3.155,-3.1033c-2.371,-0.01 -7.6729,-0.94531 -11.448,0.2051c-3.7752,1.1504 -2.2694,-1.0784 -4.9656,2.331c-8.6551,10.944 -15.272,13.211 -8.3528,13.006c6.9197,-0.20448 5.3327,2.8791 10.359,-0.093c5.0266,-2.9721 2.9308,0.92561 7.0108,-3.4303s3.8663,-4.3762 5.3721,-6.605s1.7804,-2.8496 1.7804,-2.8496l0.0001,0.0002z"/>
   <path id="svg_94" fill="url(#v)" d="m549.01,542.890015c-1.19,7.0544 -4.2852,9.4453 -10.491,8.4065c-6.2054,-1.0388 -11.526,-5.0945 -11.981,-12.168c-0.51549,-8.0042 10.49,-16.249 14.37,-12.628c8.3011,7.7482 9.0806,9.1277 8.1718,15.932"/>
   <path id="svg_95" fill="url(#u)" d="m543.94,651.400015l827.24,0l2.8371,-199.38c-2.1271,-3.4194 -38.299,-19.277 -148.81,-27.84c-40.007,-3.0998 -113.43,42.225 -161.72,49.173c-51.288,7.379 -107.08,-27.14 -162.52,-11.117c-125.24,36.203 -254.35,96.379 -357.03,189.16l0.0029,0.004z"/>
   <path id="svg_96" fill="#a80" d="m570.24,524.110015c0.0481,-0.0551 2.2771,3.0897 4.2501,5.6162c2.0833,2.6677 3.8707,2.0492 6.527,1.2143c2.6563,-0.83484 0.45537,-1.2143 4.1742,-0.91074c3.7189,0.30358 0.53128,0.98664 4.9332,0.37948c4.4019,-0.60718 7.5895,2.4286 5.6162,-0.53128s-2.3527,-3.4153 -4.2501,-5.6922s1.2143,-3.3394 -3.2635,-2.884c-4.4778,0.45537 -2.8081,0.53126 -7.286,0.37947c-4.4778,-0.15179 -4.5537,-0.53126 -7.6654,-0.15179c-3.1117,0.37948 -2.0492,-3.9466 -5.1609,0.22769c-3.1117,4.1742 -3.643,3.1876 -4.0224,6.4511c0.34139,2.5983 1.4684,3.7099 1.7437,3.802c0.35938,0.12019 0.46245,-1.6174 0.83673,-2.7394l3.56717,-5.16083z"/>
   <path id="svg_97" fill="url(#a)" d="m1371.465109,484.284723a20.513697,20.422036 0 1 1 0.126441,-0.728065"/>
   <path id="svg_98" fill="url(#a)" d="m1186.82061,490.219855a30.751989,21.538002 0 1 1 0.012388,-0.768867"/>
   <path id="svg_99" fill="url(#a)" d="m1209.726438,488.719855a23.036399,21.538002 0 1 1 0.00928,-0.768867"/>
   <path id="svg_100" fill="url(#a)" d="m1232.825109,492.701294a20.513697,17.451042 0 1 1 0.126441,-0.622146"/>
   <path id="svg_101" fill="url(#a)" d="m1150.065109,497.171294a20.513697,17.451042 0 1 1 0.126441,-0.622146"/>
   <path id="svg_102" fill="url(#a)" d="m1306.99761,486.489855a30.751989,21.538002 0 1 1 0.012388,-0.768867"/>
   <path id="svg_103" fill="url(#a)" d="m1262.285109,488.674723a20.513697,20.422036 0 1 1 0.126441,-0.728065"/>
   <path id="svg_104" fill="url(#a)" d="m1322.145109,488.487937a20.513697,16.708294 0 1 1 0.126441,-0.595666"/>
   <path id="svg_105" fill="url(#a)" d="m1348.926438,484.599855a23.036399,21.538002 0 1 1 0.00928,-0.768867"/>
   <path id="svg_106" fill="url(#a)" d="m1131.994248,533.731036a24.105893,24.186826 0 1 1 0.148592,-0.862283"/>
   <path id="svg_107" fill="url(#a)" d="m1137.494248,518.231036a24.105893,24.186826 0 1 1 0.148592,-0.862283"/>
   <path id="svg_108" fill="url(#a)" d="m1206.60161,496.409855a30.751989,21.538002 0 1 1 0.012388,-0.768867"/>
   <path id="svg_109" fill="url(#a)" d="m1229.506438,494.919855a23.036399,21.538002 0 1 1 0.00928,-0.768867"/>
   <path id="svg_110" fill="url(#a)" d="m1252.615109,498.891294a20.513697,17.451042 0 1 1 0.126441,-0.622146"/>
   <path id="svg_111" fill="url(#a)" d="m1169.845109,503.371294a20.513697,17.451042 0 1 1 0.126441,-0.622146"/>
   <path id="svg_112" fill="url(#a)" d="m1326.77761,492.689855a30.751989,21.538002 0 1 1 0.012388,-0.768867"/>
   <path id="svg_113" fill="url(#a)" d="m1282.065109,494.874723a20.513697,20.422036 0 1 1 0.126441,-0.728065"/>
   <path id="svg_114" fill="url(#a)" d="m1341.925109,494.687937a20.513697,16.708294 0 1 1 0.126441,-0.595666"/>
   <path id="svg_115" fill="url(#a)" d="m1370.256438,489.709855a23.036399,21.538002 0 1 1 0.00928,-0.768867"/>
   <path id="svg_116" fill="url(#t)" d="m187.64,704.330015l1026.4,0c-351,-156.78 -582.93,-300.65 -1026.4,0z"/>
   <g id="svg_117" transform="matrix(1.0049,0,0,1.0049,-5.8231,-5.3099) ">
    <path id="svg_118" fill="url(#svg_54)" d="m-1.078327,511.27882c2.143513,10.551899 12.942143,17.317354 24.119686,15.110307c11.177607,-2.206668 18.500554,-12.549279 16.357104,-23.101189s-12.942143,-17.317354 -24.119055,-15.110413c-10.895906,2.151068 -18.182068,12.059898 -16.482458,22.41689"/>
    <path id="svg_119" fill="url(#svg_53)" d="m182.025482,506.503402c0.49623,11.267775 14.546693,19.357271 31.383169,18.067624c16.836476,-1.289243 30.081877,-11.468512 29.585741,-22.736292s-14.546693,-19.357271 -31.382224,-18.067677c-16.412162,1.256765 -29.495964,10.984289 -29.598026,22.006822"/>
    <path id="svg_120" fill="url(#svg_52)" d="m159.258872,506.380882c0.371729,11.274846 10.897013,19.564568 23.509315,18.514849c12.612303,-1.049315 22.534509,-11.03983 22.162851,-22.314681s-10.897013,-19.564568 -23.508607,-18.514889c-12.294447,1.022884 -22.095599,10.563957 -22.172054,21.585035"/>
    <path id="svg_121" fill="url(#svg_51)" d="m136.411673,511.464964c2.143513,8.999201 12.942143,14.691283 24.119686,12.71297c11.177607,-1.977989 18.500554,-10.876539 16.357104,-19.875749s-12.942143,-14.691283 -24.119055,-12.713067c-10.895906,1.92815 -18.182068,10.455718 -16.482458,19.292032"/>
    <path id="svg_122" fill="url(#svg_50)" d="m218.491673,511.044964c2.143513,8.999201 12.942143,14.691283 24.119686,12.71297c11.177607,-1.977989 18.500554,-10.876539 16.357104,-19.875749s-12.942143,-14.691283 -24.119055,-12.713067c-10.895906,1.92815 -18.182068,10.455718 -16.482458,19.292032"/>
    <path id="svg_123" fill="url(#svg_49)" d="m62.825482,509.733402c0.49623,11.267775 14.546693,19.357271 31.383169,18.067624c16.836476,-1.289243 30.081877,-11.468512 29.585741,-22.736292s-14.546693,-19.357271 -31.382224,-18.067677c-16.412162,1.256765 -29.495964,10.984289 -29.598026,22.006822"/>
    <path id="svg_124" fill="url(#svg_48)" d="m107.191673,509.29882c2.143513,10.551899 12.942143,17.317354 24.119686,15.110307c11.177607,-2.206668 18.500554,-12.549279 16.357104,-23.101189s-12.942143,-17.317354 -24.119055,-15.110413c-10.895906,2.151068 -18.182068,12.059898 -16.482458,22.41689"/>
    <path id="svg_125" fill="url(#svg_47)" d="m47.841673,512.484288c2.143513,8.610869 12.942143,14.034478 24.119686,12.113345c11.177607,-1.920823 18.500554,-10.458235 16.357104,-19.069113s-12.942143,-14.034478 -24.119055,-12.113438c-10.895906,1.872425 -18.182068,10.05456 -16.482458,18.510551"/>
    <path id="svg_126" fill="url(#svg_46)" d="m21.268872,510.310882c0.371729,11.274846 10.897013,19.564568 23.509315,18.514849c12.612303,-1.049315 22.534509,-11.03983 22.162851,-22.314681s-10.897013,-19.564568 -23.508607,-18.514889c-12.294447,1.022884 -22.095599,10.563957 -22.172054,21.585035"/>
    <path id="svg_127" fill="url(#svg_45)" d="m236.349737,544.764227c2.518831,12.498311 15.208563,20.516642 28.343628,17.908544c13.13514,-2.607648 21.740614,-14.853151 19.221857,-27.351474s-15.208563,-20.516642 -28.342887,-17.90867c-12.804105,2.541945 -21.366349,14.273716 -19.36916,26.540957"/>
    <path id="svg_128" fill="url(#svg_44)" d="m230.949737,530.354227c2.518831,12.498311 15.208563,20.516642 28.343628,17.908544c13.13514,-2.607648 21.740614,-14.853151 19.221857,-27.351474s-15.208563,-20.516642 -28.342887,-17.90867c-12.804105,2.541945 -21.366349,14.273716 -19.36916,26.540957"/>
    <path id="svg_129" fill="url(#svg_43)" d="m162.425482,513.513402c0.49623,11.267775 14.546693,19.357271 31.383169,18.067624c16.836476,-1.289243 30.081877,-11.468512 29.585741,-22.736292s-14.546693,-19.357271 -31.382224,-18.067677c-16.412162,1.256765 -29.495964,10.984289 -29.598026,22.006822"/>
    <path id="svg_130" fill="url(#svg_42)" d="m139.688872,513.380882c0.371729,11.274846 10.897013,19.564568 23.509315,18.514849c12.612303,-1.049315 22.534509,-11.03983 22.162851,-22.314681s-10.897013,-19.564568 -23.508607,-18.514889c-12.294447,1.022884 -22.095599,10.563957 -22.172054,21.585035"/>
    <path id="svg_131" fill="url(#svg_41)" d="m116.791673,518.464964c2.143513,8.999201 12.942143,14.691283 24.119686,12.71297c11.177607,-1.977989 18.500554,-10.876539 16.357104,-19.875749s-12.942143,-14.691283 -24.119055,-12.713067c-10.895906,1.92815 -18.182068,10.455718 -16.482458,19.292032"/>
    <path id="svg_132" fill="url(#svg_40)" d="m198.871673,518.054964c2.143513,8.999201 12.942143,14.691283 24.119686,12.71297c11.177607,-1.977989 18.500554,-10.876539 16.357104,-19.875749s-12.942143,-14.691283 -24.119055,-12.713067c-10.895906,1.92815 -18.182068,10.455718 -16.482458,19.292032"/>
    <path id="svg_133" fill="url(#svg_39)" d="m43.225482,516.743402c0.49623,11.267775 14.546693,19.357271 31.383169,18.067624c16.836476,-1.289243 30.081877,-11.468512 29.585741,-22.736292s-14.546693,-19.357271 -31.382224,-18.067677c-16.412162,1.256765 -29.495964,10.984289 -29.598026,22.006822"/>
    <path id="svg_134" fill="url(#svg_38)" d="m87.571673,516.29882c2.143513,10.551899 12.942143,17.317354 24.119686,15.110307c11.177607,-2.206668 18.500554,-12.549279 16.357104,-23.101189s-12.942143,-17.317354 -24.119055,-15.110413c-10.895906,2.151068 -18.182068,12.059898 -16.482458,22.41689"/>
    <path id="svg_135" fill="url(#svg_37)" d="m28.221673,519.494288c2.143513,8.610869 12.942143,14.034478 24.119686,12.113345c11.177607,-1.920823 18.500554,-10.458235 16.357104,-19.069113s-12.942143,-14.034478 -24.119055,-12.113438c-10.895906,1.872425 -18.182068,10.05456 -16.482458,18.510551"/>
    <path id="svg_136" fill="url(#svg_36)" d="m0.108872,516.360882c0.371729,11.274846 10.897013,19.564568 23.509315,18.514849c12.612303,-1.049315 22.534509,-11.03983 22.162851,-22.314681s-10.897013,-19.564568 -23.508607,-18.514889c-12.294447,1.022884 -22.095599,10.563957 -22.172054,21.585035"/>
    <path id="svg_137" fill="url(#svg_35)" d="m187.60055,530.524549c0.583124,15.622879 17.093926,27.003071 36.878595,25.417309c19.784668,-1.585202 35.349436,-15.534835 34.766423,-31.15772s-17.093927,-27.003071 -36.877484,-25.417372c-19.286053,1.545271 -34.660926,14.870728 -34.78086,30.14654"/>
    <path id="svg_138" fill="#22280b" d="m2.2084,561.836581l-0.38534,-32.595c68.974,7.1858 41.23,9.1086 89.396,6.7198c29.505,-1.4633 87.443,13.326 126.71,17.183c24.832,2.4396 45.247,-4.7709 42.069,-4.2157c-34.823,6.083 21.87,5.4387 -0.0944,8.4211c-10.098,1.3712 -32.273,4.1739 -56.164,0.67308c-23.89,-3.5008 -23.216,-3.5435 -59.347,-3.137c-49.057,0.55196 -57.022,10.441 -90.546,5.0582c-33.524,-5.3825 -51.634,1.8919 -51.634,1.8919l-0.00426,0.00062z"/>
    <path id="svg_139" fill="url(#svg_34)" d="m160.883299,530.080307c0.436825,15.631188 12.805283,27.246665 27.626235,25.942842c14.820952,-1.303264 26.480722,-15.031094 26.04398,-30.662287s-12.805283,-27.246665 -27.625403,-25.942889c-14.447434,1.270438 -25.964951,14.376798 -26.054795,29.650901"/>
    <path id="svg_140" fill="url(#svg_33)" d="m134.709737,534.024227c2.518831,12.498311 15.208563,20.516642 28.343628,17.908544c13.13514,-2.607648 21.740614,-14.853151 19.221857,-27.351474s-15.208563,-20.516642 -28.342887,-17.90867c-12.804105,2.541945 -21.366349,14.273716 -19.36916,26.540957"/>
    <path id="svg_141" fill="url(#svg_32)" d="m219.449737,539.344227c2.518831,12.498311 15.208563,20.516642 28.343628,17.908544c13.13514,-2.607648 21.740614,-14.853151 19.221857,-27.351474s-15.208563,-20.516642 -28.342887,-17.90867c-12.804105,2.541945 -21.366349,14.273716 -19.36916,26.540957"/>
    <path id="svg_142" fill="url(#svg_31)" d="m47.50055,533.574549c0.583124,15.622879 17.093926,27.003071 36.878595,25.417309c19.784668,-1.585202 35.349436,-15.534835 34.766423,-31.15772s-17.093927,-27.003071 -36.877484,-25.417372c-19.286053,1.545271 -34.660926,14.870728 -34.78086,30.14654"/>
    <path id="svg_143" fill="url(#svg_30)" d="m99.609737,533.482744c2.518831,14.650438 15.208563,24.156641 28.343628,21.231649c13.13514,-2.924465 21.740614,-17.171398 19.221857,-31.82185s-15.208563,-24.156641 -28.342887,-21.231789c-12.804105,2.85078 -21.366349,16.49694 -19.36916,30.871921"/>
    <path id="svg_144" fill="url(#svg_29)" d="m29.859737,537.203247c2.518831,11.960362 15.208563,19.606897 28.343628,17.078154c13.13514,-2.528313 21.740614,-14.273418 19.221857,-26.233791s-15.208563,-19.606897 -28.342887,-17.078276c-12.804105,2.464609 -21.366349,13.71774 -19.36916,25.458121"/>
    <path id="svg_145" fill="url(#svg_28)" d="m-6.036701,538.270307a-26.846754,28.36 0 1 1 -0.010815,-1.011786"/>
   </g>
   <g id="svg_146" transform="matrix(0.69811,0.24258,0,1.0049,216.85,-15.41) ">
    <path id="svg_147" fill="url(#svg_27)" d="m-1.078327,511.27882c2.143513,10.551899 12.942143,17.317354 24.119686,15.110307c11.177607,-2.206668 18.500554,-12.549279 16.357104,-23.101189s-12.942143,-17.317354 -24.119055,-15.110413c-10.895906,2.151068 -18.182068,12.059898 -16.482458,22.41689"/>
    <path id="svg_148" fill="url(#svg_26)" d="m182.025482,506.503402c0.49623,11.267775 14.546693,19.357271 31.383169,18.067624c16.836476,-1.289243 30.081877,-11.468512 29.585741,-22.736292s-14.546693,-19.357271 -31.382224,-18.067677c-16.412162,1.256765 -29.495964,10.984289 -29.598026,22.006822"/>
    <path id="svg_149" fill="url(#svg_25)" d="m159.258872,506.380882c0.371729,11.274846 10.897013,19.564568 23.509315,18.514849c12.612303,-1.049315 22.534509,-11.03983 22.162851,-22.314681s-10.897013,-19.564568 -23.508607,-18.514889c-12.294447,1.022884 -22.095599,10.563957 -22.172054,21.585035"/>
    <path id="svg_150" fill="url(#svg_24)" d="m136.411673,511.464964c2.143513,8.999201 12.942143,14.691283 24.119686,12.71297c11.177607,-1.977989 18.500554,-10.876539 16.357104,-19.875749s-12.942143,-14.691283 -24.119055,-12.713067c-10.895906,1.92815 -18.182068,10.455718 -16.482458,19.292032"/>
    <path id="svg_151" fill="url(#svg_23)" d="m218.491673,511.044964c2.143513,8.999201 12.942143,14.691283 24.119686,12.71297c11.177607,-1.977989 18.500554,-10.876539 16.357104,-19.875749s-12.942143,-14.691283 -24.119055,-12.713067c-10.895906,1.92815 -18.182068,10.455718 -16.482458,19.292032"/>
    <path id="svg_152" fill="url(#svg_22)" d="m62.825482,509.733402c0.49623,11.267775 14.546693,19.357271 31.383169,18.067624c16.836476,-1.289243 30.081877,-11.468512 29.585741,-22.736292s-14.546693,-19.357271 -31.382224,-18.067677c-16.412162,1.256765 -29.495964,10.984289 -29.598026,22.006822"/>
    <path id="svg_153" fill="url(#svg_21)" d="m107.191673,509.29882c2.143513,10.551899 12.942143,17.317354 24.119686,15.110307c11.177607,-2.206668 18.500554,-12.549279 16.357104,-23.101189s-12.942143,-17.317354 -24.119055,-15.110413c-10.895906,2.151068 -18.182068,12.059898 -16.482458,22.41689"/>
    <path id="svg_154" fill="url(#svg_20)" d="m47.841673,512.484288c2.143513,8.610869 12.942143,14.034478 24.119686,12.113345c11.177607,-1.920823 18.500554,-10.458235 16.357104,-19.069113s-12.942143,-14.034478 -24.119055,-12.113438c-10.895906,1.872425 -18.182068,10.05456 -16.482458,18.510551"/>
    <path id="svg_155" fill="url(#svg_19)" d="m21.268872,510.310882c0.371729,11.274846 10.897013,19.564568 23.509315,18.514849c12.612303,-1.049315 22.534509,-11.03983 22.162851,-22.314681s-10.897013,-19.564568 -23.508607,-18.514889c-12.294447,1.022884 -22.095599,10.563957 -22.172054,21.585035"/>
    <path id="svg_156" fill="url(#svg_18)" d="m236.349737,544.764227c2.518831,12.498311 15.208563,20.516642 28.343628,17.908544c13.13514,-2.607648 21.740614,-14.853151 19.221857,-27.351474s-15.208563,-20.516642 -28.342887,-17.90867c-12.804105,2.541945 -21.366349,14.273716 -19.36916,26.540957"/>
    <path id="svg_157" fill="url(#svg_17)" d="m230.949737,530.354227c2.518831,12.498311 15.208563,20.516642 28.343628,17.908544c13.13514,-2.607648 21.740614,-14.853151 19.221857,-27.351474s-15.208563,-20.516642 -28.342887,-17.90867c-12.804105,2.541945 -21.366349,14.273716 -19.36916,26.540957"/>
    <path id="svg_158" fill="url(#svg_16)" d="m162.425482,513.513402c0.49623,11.267775 14.546693,19.357271 31.383169,18.067624c16.836476,-1.289243 30.081877,-11.468512 29.585741,-22.736292s-14.546693,-19.357271 -31.382224,-18.067677c-16.412162,1.256765 -29.495964,10.984289 -29.598026,22.006822"/>
    <path id="svg_159" fill="url(#svg_15)" d="m139.688872,513.380882c0.371729,11.274846 10.897013,19.564568 23.509315,18.514849c12.612303,-1.049315 22.534509,-11.03983 22.162851,-22.314681s-10.897013,-19.564568 -23.508607,-18.514889c-12.294447,1.022884 -22.095599,10.563957 -22.172054,21.585035"/>
    <path id="svg_160" fill="url(#svg_14)" d="m116.791673,518.464964c2.143513,8.999201 12.942143,14.691283 24.119686,12.71297c11.177607,-1.977989 18.500554,-10.876539 16.357104,-19.875749s-12.942143,-14.691283 -24.119055,-12.713067c-10.895906,1.92815 -18.182068,10.455718 -16.482458,19.292032"/>
    <path id="svg_161" fill="url(#svg_13)" d="m198.871673,518.054964c2.143513,8.999201 12.942143,14.691283 24.119686,12.71297c11.177607,-1.977989 18.500554,-10.876539 16.357104,-19.875749s-12.942143,-14.691283 -24.119055,-12.713067c-10.895906,1.92815 -18.182068,10.455718 -16.482458,19.292032"/>
    <path id="svg_162" fill="url(#svg_12)" d="m43.225482,516.743402c0.49623,11.267775 14.546693,19.357271 31.383169,18.067624c16.836476,-1.289243 30.081877,-11.468512 29.585741,-22.736292s-14.546693,-19.357271 -31.382224,-18.067677c-16.412162,1.256765 -29.495964,10.984289 -29.598026,22.006822"/>
    <path id="svg_163" fill="url(#svg_11)" d="m87.571673,516.29882c2.143513,10.551899 12.942143,17.317354 24.119686,15.110307c11.177607,-2.206668 18.500554,-12.549279 16.357104,-23.101189s-12.942143,-17.317354 -24.119055,-15.110413c-10.895906,2.151068 -18.182068,12.059898 -16.482458,22.41689"/>
    <path id="svg_164" fill="url(#svg_10)" d="m28.221673,519.494288c2.143513,8.610869 12.942143,14.034478 24.119686,12.113345c11.177607,-1.920823 18.500554,-10.458235 16.357104,-19.069113s-12.942143,-14.034478 -24.119055,-12.113438c-10.895906,1.872425 -18.182068,10.05456 -16.482458,18.510551"/>
    <path id="svg_165" fill="url(#svg_9)" d="m0.108872,516.360882c0.371729,11.274846 10.897013,19.564568 23.509315,18.514849c12.612303,-1.049315 22.534509,-11.03983 22.162851,-22.314681s-10.897013,-19.564568 -23.508607,-18.514889c-12.294447,1.022884 -22.095599,10.563957 -22.172054,21.585035"/>
    <path id="svg_166" fill="url(#svg_8)" d="m187.60055,530.524549c0.583124,15.622879 17.093926,27.003071 36.878595,25.417309c19.784668,-1.585202 35.349436,-15.534835 34.766423,-31.15772s-17.093927,-27.003071 -36.877484,-25.417372c-19.286053,1.545271 -34.660926,14.870728 -34.78086,30.14654"/>
    <path id="svg_167" fill="#22280b" d="m2.2084,561.836581l-0.38534,-32.595c68.974,7.1858 41.23,9.1086 89.396,6.7198c29.505,-1.4633 87.443,13.326 126.71,17.183c24.832,2.4396 45.247,-4.7709 42.069,-4.2157c-34.823,6.083 21.87,5.4387 -0.0944,8.4211c-10.098,1.3712 -32.273,4.1739 -56.164,0.67308c-23.89,-3.5008 -23.216,-3.5435 -59.347,-3.137c-49.057,0.55196 -57.022,10.441 -90.546,5.0582c-33.524,-5.3825 -51.634,1.8919 -51.634,1.8919l-0.00426,0.00062z"/>
    <path id="svg_168" fill="url(#svg_7)" d="m160.883299,530.080307c0.436825,15.631188 12.805283,27.246665 27.626235,25.942842c14.820952,-1.303264 26.480722,-15.031094 26.04398,-30.662287s-12.805283,-27.246665 -27.625403,-25.942889c-14.447434,1.270438 -25.964951,14.376798 -26.054795,29.650901"/>
    <path id="svg_169" fill="url(#svg_6)" d="m134.709737,534.024227c2.518831,12.498311 15.208563,20.516642 28.343628,17.908544c13.13514,-2.607648 21.740614,-14.853151 19.221857,-27.351474s-15.208563,-20.516642 -28.342887,-17.90867c-12.804105,2.541945 -21.366349,14.273716 -19.36916,26.540957"/>
    <path id="svg_170" fill="url(#svg_5)" d="m219.449737,539.344227c2.518831,12.498311 15.208563,20.516642 28.343628,17.908544c13.13514,-2.607648 21.740614,-14.853151 19.221857,-27.351474s-15.208563,-20.516642 -28.342887,-17.90867c-12.804105,2.541945 -21.366349,14.273716 -19.36916,26.540957"/>
    <path id="svg_171" fill="url(#svg_4)" d="m47.50055,533.574549c0.583124,15.622879 17.093926,27.003071 36.878595,25.417309c19.784668,-1.585202 35.349436,-15.534835 34.766423,-31.15772s-17.093927,-27.003071 -36.877484,-25.417372c-19.286053,1.545271 -34.660926,14.870728 -34.78086,30.14654"/>
    <path id="svg_172" fill="url(#svg_3)" d="m99.609737,533.482744c2.518831,14.650438 15.208563,24.156641 28.343628,21.231649c13.13514,-2.924465 21.740614,-17.171398 19.221857,-31.82185s-15.208563,-24.156641 -28.342887,-21.231789c-12.804105,2.85078 -21.366349,16.49694 -19.36916,30.871921"/>
    <path id="svg_173" fill="url(#svg_2)" d="m29.859737,537.203247c2.518831,11.960362 15.208563,19.606897 28.343628,17.078154c13.13514,-2.528313 21.740614,-14.273418 19.221857,-26.233791s-15.208563,-19.606897 -28.342887,-17.078276c-12.804105,2.464609 -21.366349,13.71774 -19.36916,25.458121"/>
    <path id="svg_174" fill="url(#svg_1)" d="m-17.646701,536.020307a-26.846754,28.36 0 1 1 -0.010815,-1.011786"/>
   </g>
   <path id="svg_175" fill="url(#s)" d="m-7.2587,560.530015l0,208.76l825.46,0c-490.08,-333.46 -644.99,-254.8 -825.46,-208.71l0,-0.05z"/>
   <path id="svg_176" fill-opacity="0.56432" fill="#8a912d" d="m229.83,518.100015c122.68,48.437 320.16,164.38 400.67,251.19l131.23,0c-104.63,-86.26 -317.1,-191.51 -444.41,-242.25c-31.462,-5.7794 -60.405,-8.4725 -87.489,-8.8871l-0.001,-0.0529z"/>
   <path id="svg_177" fill="url(#r)" d="m642.92,692.540015l729.04,0l-4.5064,-171.29c-4.7734,-5.435 -451.82,-3.2623 -724.53,171.29l-0.0036,0z"/>
   <path id="svg_178" fill-opacity="0.43568" fill="#2b2200" d="m752.74,658.590015c-32.37,-14.01 -123.92,-41.68 -145.66,-56.75c-9.5557,-6.6258 -7.6337,-18.204 9.1387,-19.702c90.774,-8.1095 6.3063,-27.675 -63.364,-42.875l6.7268,-1.188c294.26,69.088 -157.32,19.07 192.35,99.195l0.90944,5.8876l-111.96,-28.805l110.7,32.493l1.15906,11.7444z"/>
   <path id="svg_179" fill="url(#q)" d="m1369.5,670.480015l1.4437,98.818l-828.34,0c195.39,-178.58 388.53,-202.65 559.34,-211.27c168.89,-8.5265 46.492,48.042 88.598,63.963c54.968,20.784 41.935,-33.975 178.99,48.443l-0.0317,0.046z"/>
   <path id="svg_180" fill-opacity="0.64315" fill="#8a913d" d="m48.347,545.700015c-18.52,4.9729 -36.948,10.054 -55.615,14.822l0,5.998c48.141,65.118 78.792,134.45 111.54,202.77l111.39,0c-50.3,-74.68 -97.84,-150.54 -167.31,-223.54l-0.005,-0.05z"/>
   <path id="svg_181" fill="url(#p)" d="m168.12,521.050015c-19.192,2.1122 -37.576,5.2102 -55.458,8.9185c90.647,70.941 164.51,155.3 232.42,239.32l158.74,0c-103.23,-91.99 -226.15,-184.96 -335.7,-248.19l-0.002,-0.0485z"/>
   <path id="svg_182" fill="url(#a)" d="m1181.27782,515.831135a36.138186,29.851736 0 1 1 0.014557,-1.065652"/>
   <path id="svg_183" fill="#22280b" d="m1373,537.700015l0.3958,-34.332c-70.838,11.687 -42.345,12.053 -91.813,12.418c-30.303,0.22373 -89.807,19.255 -130.13,25.662c-25.504,4.0525 -46.47,-2.3166 -43.206,-1.9222c35.764,4.3209 -22.461,7.0321 0.097,8.8583c10.371,0.83957 33.146,2.4638 57.682,-2.6494s23.844,-5.1179 60.951,-6.8501c50.383,-2.352 58.564,7.5806 92.994,-0.0892s53.03,-1.0957 53.03,-1.0957l-0.0008,0.0003z"/>
   <path id="svg_184" fill="url(#a)" d="m1208.158938,513.771135a27.070399,29.851736 0 1 1 0.010905,-1.065652"/>
   <path id="svg_185" fill="url(#a)" d="m1234.524248,516.341036a24.105893,24.186826 0 1 1 0.148592,-0.862283"/>
   <path id="svg_186" fill="url(#a)" d="m1149.034248,527.011036a24.105893,24.186826 0 1 1 0.148592,-0.862283"/>
   <path id="svg_187" fill="url(#a)" d="m1322.49482,510.671135a36.138186,29.851736 0 1 1 0.014557,-1.065652"/>
   <path id="svg_188" fill="url(#a)" d="m1269.914248,513.68674a24.105893,28.304698 0 1 1 0.148592,-1.009089"/>
   <path id="svg_189" fill="url(#a)" d="m1340.244248,513.425909a24.105893,23.157358 0 1 1 0.148592,-0.825581"/>
   <path id="svg_190" fill="url(#a)" d="m1373.548938,506.531135a27.070399,29.851736 0 1 1 0.010905,-1.065652"/>
   <path id="svg_191" fill-opacity="0.6473" fill="#540" d="m770.73,623.870015c132.69,25.223 250.75,69.28 367.54,147.92l39.258,4.4284c-82.1,-54.4 -235.06,-128.94 -403.06,-154.55l-3.738,2.2016z"/>
   <path id="svg_192" fill-opacity="0.6473" fill="#540" d="m781.01,618.840015c133.01,18.396 288.68,74.598 410.85,153.67l28.248,0.1167c-108.3,-72.93 -270.79,-137.69 -435.29,-155.98l-3.808,2.1933z"/>
   <path id="svg_193" fill="url(#o)" d="m610.55,528.110015c-1.19,7.0544 -7.1852,11.931 -13.391,10.892c-6.2054,-1.0388 -12.003,-8.1959 -9.0812,-14.654c6.4117,-14.17 9.6779,-15.109 14.37,-12.628c9.2528,4.8931 9.1153,9.0237 8.1718,15.932"/>
   <g id="svg_194" transform="matrix(0.15814,0,0,0.12803,46.487,915.59) ">
    <path id="svg_195" fill="#c8ab37" d="m804.44,-1240.141763s-19.396,-34.709 -35.73,-70.44c-16.334,-35.73 -6.1252,-32.668 -27.563,-54.106s-49.002,-18.376 -65.335,10.209c-16.334,28.584 -17.355,60.231 -36.751,89.836s-33.689,45.939 -33.689,45.939s-21.438,11.23 -1.0209,0s37.772,-1.0209 37.772,-1.0209l85.753,10.209s67.377,9.1878 31.647,-4.0835s44.918,-26.543 44.918,-26.543l-0.0011,0.0004z"/>
    <path id="svg_196" fill="#a0892c" d="m631.92,-1237.081763s20.417,-4.0835 31.647,-30.626c11.23,-26.543 0,-67.377 22.459,-84.732s26.543,-19.396 26.543,-19.396s-26.543,45.939 -19.396,79.628c7.1461,33.689 25.522,40.835 9.1878,55.127s-29.605,11.23 -43.897,5.1043c-14.292,-6.1252 -26.543,-5.1043 -26.543,-5.1043l-0.0008,-0.001z"/>
   </g>
   <g id="svg_197" transform="matrix(0.14199,0,0,0.12671,19.978,880.69) ">
    <path id="svg_198" fill="#c8ab37" d="m804.44,-1263.279458s-19.396,-34.709 -35.73,-70.44c-16.334,-35.73 -6.1252,-32.668 -27.563,-54.106s-49.002,-18.376 -65.335,10.209c-16.334,28.584 -17.355,60.231 -36.751,89.836s-33.689,45.939 -33.689,45.939s-21.438,11.23 -1.0209,0s37.772,-1.0209 37.772,-1.0209l85.753,10.209s67.377,9.1878 31.647,-4.0835s44.918,-26.543 44.918,-26.543l-0.0011,0.0004z"/>
    <path id="svg_199" fill="#a0892c" d="m631.92,-1260.219458s20.417,-4.0835 31.647,-30.626c11.23,-26.543 0,-67.377 22.459,-84.732s26.543,-19.396 26.543,-19.396s-26.543,45.939 -19.396,79.628c7.1461,33.689 25.522,40.835 9.1878,55.127s-29.605,11.23 -43.897,5.1043c-14.292,-6.1252 -26.543,-5.1043 -26.543,-5.1043l-0.0008,-0.001z"/>
   </g>
   <g id="svg_200" transform="matrix(0.11596,0,0,0.10907,33.207,856.42) ">
    <path id="svg_201" fill="#c8ab37" d="m804.44,-1626.232827s-19.396,-34.709 -35.73,-70.44c-16.334,-35.73 -6.1252,-32.668 -27.563,-54.106s-49.002,-18.376 -65.335,10.209c-16.334,28.584 -17.355,60.231 -36.751,89.836s-33.689,45.939 -33.689,45.939s-21.438,11.23 -1.0209,0s37.772,-1.0209 37.772,-1.0209l85.753,10.209s67.377,9.1878 31.647,-4.0835s44.918,-26.543 44.918,-26.543l-0.0011,0.0004z"/>
    <path id="svg_202" fill="#a0892c" d="m631.92,-1623.172827s20.417,-4.0835 31.647,-30.626c11.23,-26.543 0,-67.377 22.459,-84.732s26.543,-19.396 26.543,-19.396s-26.543,45.939 -19.396,79.628c7.1461,33.689 25.522,40.835 9.1878,55.127s-29.605,11.23 -43.897,5.1043c-14.292,-6.1252 -26.543,-5.1043 -26.543,-5.1043l-0.0008,-0.001z"/>
   </g>
   <g id="svg_203" transform="matrix(0.096318,0,0,0.097157,10.025,842.86) ">
    <path id="svg_204" fill="#c8ab37" d="m804.44,-1945.909097s-19.396,-34.709 -35.73,-70.44c-16.334,-35.73 -6.1252,-32.668 -27.563,-54.106s-49.002,-18.376 -65.335,10.209c-16.334,28.584 -17.355,60.231 -36.751,89.836s-33.689,45.939 -33.689,45.939s-21.438,11.23 -1.0209,0s37.772,-1.0209 37.772,-1.0209l85.753,10.209s67.377,9.1878 31.647,-4.0835s44.918,-26.543 44.918,-26.543l-0.0011,0.0004z"/>
    <path id="svg_205" fill="#a0892c" d="m631.92,-1942.849097s20.417,-4.0835 31.647,-30.626c11.23,-26.543 0,-67.377 22.459,-84.732s26.543,-19.396 26.543,-19.396s-26.543,45.939 -19.396,79.628c7.1461,33.689 25.522,40.835 9.1878,55.127s-29.605,11.23 -43.897,5.1043c-14.292,-6.1252 -26.543,-5.1043 -26.543,-5.1043l-0.0008,-0.001z"/>
   </g>
   <g id="svg_206" transform="matrix(0.081586,0,0,0.085137,13.669,827.34) ">
    <path id="svg_207" fill="#c8ab37" d="m804.44,-2359.128335s-19.396,-34.709 -35.73,-70.44c-16.334,-35.73 -6.1252,-32.668 -27.563,-54.106s-49.002,-18.376 -65.335,10.209c-16.334,28.584 -17.355,60.231 -36.751,89.836s-33.689,45.939 -33.689,45.939s-21.438,11.23 -1.0209,0s37.772,-1.0209 37.772,-1.0209l85.753,10.209s67.377,9.1878 31.647,-4.0835s44.918,-26.543 44.918,-26.543l-0.0011,0.0004z"/>
    <path id="svg_208" fill="#a0892c" d="m631.92,-2356.068335s20.417,-4.0835 31.647,-30.626c11.23,-26.543 0,-67.377 22.459,-84.732s26.543,-19.396 26.543,-19.396s-26.543,45.939 -19.396,79.628c7.1461,33.689 25.522,40.835 9.1878,55.127s-29.605,11.23 -43.897,5.1043c-14.292,-6.1252 -26.543,-5.1043 -26.543,-5.1043l-0.0008,-0.001z"/>
   </g>
   <g id="svg_209" transform="matrix(0.061944,0,0,0.054923,-8.4865,812.78) ">
    <path id="svg_210" fill="#c8ab37" d="m804.44,-4196.53019s-19.396,-34.709 -35.73,-70.44c-16.334,-35.73 -6.1252,-32.668 -27.563,-54.106s-49.002,-18.376 -65.335,10.209c-16.334,28.584 -17.355,60.231 -36.751,89.836s-33.689,45.939 -33.689,45.939s-21.438,11.23 -1.0209,0s37.772,-1.0209 37.772,-1.0209l85.753,10.209s67.377,9.1878 31.647,-4.0835s44.918,-26.543 44.918,-26.543l-0.0011,0.0004z"/>
    <path id="svg_211" fill="#a0892c" d="m631.92,-4193.47019s20.417,-4.0835 31.647,-30.626c11.23,-26.543 0,-67.377 22.459,-84.732s26.543,-19.396 26.543,-19.396s-26.543,45.939 -19.396,79.628c7.1461,33.689 25.522,40.835 9.1878,55.127s-29.605,11.23 -43.897,5.1043c-14.292,-6.1252 -26.543,-5.1043 -26.543,-5.1043l-0.0008,-0.001z"/>
   </g>
  </g>
 </g>
</svg>