<svg width="320" height="320" xmlns="http://www.w3.org/2000/svg" xmlns:xlink="http://www.w3.org/1999/xlink">
 <defs>
  <filter id="r" x="-0.06211" y="-0.2429" width="1.1242" height="1.4858">
   <feGaussianBlur stdDeviation="5.424115"/>
  </filter>
  <filter id="q">
   <feGaussianBlur stdDeviation="3.043001"/>
  </filter>
  <filter id="l" x="-0.60645" y="-0.60645" width="2.2129" height="2.2129">
   <feGaussianBlur stdDeviation="2.617127"/>
  </filter>
  <linearGradient id="m" x1="0.07566" x2="-0.047684" y1="0.728355" y2="0.614992" xlink:href="#o"/>
  <linearGradient id="o">
   <stop stop-color="#b98663" offset="0"/>
   <stop stop-color="#b98663" stop-opacity="0" offset="1"/>
  </linearGradient>
  <linearGradient id="n" x1="0.987099" x2="0.380881" y1="0.51394" y2="0.092158">
   <stop stop-color="#d9a66d" offset="0"/>
   <stop stop-color="#d9a66d" stop-opacity="0" offset="1"/>
  </linearGradient>
  <linearGradient id="u" x1="0.999348" x2="-0.00102" y1="0.500076" y2="1.000015" xlink:href="#p"/>
  <linearGradient id="p">
   <stop stop-color="#e2a986" offset="0"/>
   <stop stop-color="#e2a986" stop-opacity="0" offset="1"/>
  </linearGradient>
  <linearGradient id="s" x1="0.518088" x2="0.501795" y1="0.429233" y2="0.28257" xlink:href="#o"/>
  <linearGradient id="t" x1="0.5003" x2="0.494214" y1="0.935078" y2="0.676993">
   <stop stop-color="#eac093" offset="0"/>
   <stop stop-color="#c78066" offset="1"/>
  </linearGradient>
  <linearGradient id="v" x1="1.000363" x2="-0.000006" y1="0.500076" y2="1.000015" xlink:href="#p"/>
 </defs>
 <g>
  <title>background</title>
  <rect x="-1" y="-1" width="322" height="322" id="canvas_background" fill="#f3f2f1"/>
 </g>
 <g>
  <title>Layer 1</title>
  <g id="svg_1">
   <g id="svg_2">
    <circle transform="matrix(2.762,0,0,2.762,-233.63,-129.65) " cx="142.236218" cy="59.740547" r="7.955" fill="#ececec" stroke="#ccc" id="svg_3"/>
    <path d="m158.89659,14.39998c-10.85,0 -19.7,8.57 -19.7,19.175c0,6.201 3.06,11.736 7.73,15.251c-1.27,-2.669 -1.93,-5.627 -1.93,-8.758c0,-11.561 9.56,-20.908 21.39,-20.908c2.22,0 4.4,0.29 6.41,0.9c-3.56,-3.5 -8.45,-5.66 -13.9,-5.66z" fill="#fff" id="svg_4"/>
   </g>
   <path d="m159.22999,289.19c-18.475,0 -33.685,14.04 -35.5,32.03l-0.25,5c-0.603,11.44 -2.601,16.26 -6.25,26.69c-1.96,3.88 -3.37,8.07 -4.187,12.47c30.345,2 61.082,2.48 92.437,0.44c-0.4615,-2.57 -1.1132,-5.06 -1.9685,-7.47l-3.0313,-6.75c-4.3357,-10.76 -4.508,-14.75 -5.5937,-25.5c0.0145,-0.42 0.0312,-0.83 0.0312,-1.25c0,-19.7 -15.992,-35.66 -35.688,-35.66l0.0003,0z" fill="#c83737" stroke="#820a0a" stroke-width="2.76" id="svg_5"/>
   <circle cx="159.349994" cy="291.09" r="11.344" fill="url(#t)" stroke="#810000" stroke-width="2.762" id="svg_6"/>
   <ellipse cx="160.379994" cy="172.06" rx="126.64" ry="122.2" fill="#eac093" stroke="#b98663" stroke-width="2.99" id="svg_7"/>
   <ellipse transform="matrix(0.99404,0.10904,-0.10934,0.994,0,0) " cx="183.049554" cy="212.065122" rx="8.9772" ry="9.1126" fill="#eac093" stroke="url(#s)" stroke-width="2.762" id="svg_8"/>
   <ellipse cx="121.309994" cy="206.12" rx="9.8369" ry="12.848" fill="url(#v)" id="svg_9"/>
   <ellipse cx="125.719994" cy="209.44" rx="5.4254" ry="8.7784" id="svg_10"/>
   <ellipse cx="123.869994" cy="205.73" rx="1.4861" ry="1.7327" fill="#fff" stroke="#fff" stroke-width="2.0094" id="svg_11"/>
   <ellipse transform="translate(-212.35000610351562,-425.5) scale(-1,1) " cx="-409.66" cy="631.62" rx="9.8369" ry="12.848" fill="url(#u)" id="svg_12"/>
   <ellipse transform="translate(-212.35000610351562,-425.5) scale(-1,1) " cx="-405.25" cy="634.94" rx="5.4254" ry="8.7784" id="svg_13"/>
   <ellipse transform="translate(-212.35000610351562,-425.5) scale(-1,1) " cx="-403.35" cy="631.48" rx="1.4861" ry="1.7327" fill="#fff" stroke="#fff" stroke-width="2.0094" id="svg_14"/>
   <circle transform="matrix(2.762,0,0,2.762,-51.213,397.75) " cx="99.041699" cy="-60.103355" r="5.1786" fill="#e29b86" filter="url(#l)" id="svg_15"/>
   <circle transform="matrix(-2.762,0,0,-2.762,782.62,892.74) " cx="247.738301" cy="239.317355" r="5.1786" fill="#e29b86" filter="url(#l)" id="svg_16"/>
   <path d="m198.26999,400.72c-7.5636,19.02 -13.186,38.04 -16.109,57.05l10.404,11.16l0.3316,2.05l-21.163,-0.05c0.291,-3.84 2.736,-8.31 3.026,-14.16c-2.401,-15.25 -6.828,-25.84 -10.884,-37.28l34.394,-18.77l0.0004,0z" fill-rule="evenodd" stroke="#000" stroke-width="0.93358px" id="svg_17"/>
   <path d="m113.04999,365.35c-0.523,2.8 -0.813,5.7 -0.813,8.65c0,25.95 21.056,47 47,47s47,-21.05 47,-47c0.0002,-2.8 -0.2692,-5.55 -0.7498,-8.22c-31.359,2.04 -62.088,1.57 -92.437,-0.43l-0.0002,0z" stroke="#000" stroke-width="1.5" id="svg_18"/>
   <path d="m201.60999,353l-84.757,0" fill="none" stroke="#820a0a" stroke-width="2.76" id="svg_19"/>
   <path d="m197.11999,336.5l-75.783,0" fill="none" stroke="#820a0a" stroke-width="2.76" id="svg_20"/>
   <path d="m195.63999,322l-71.306,0" fill="none" stroke="#820a0a" stroke-width="2.76" id="svg_21"/>
   <path d="m190.64999,307.5l-62.833,0" fill="none" stroke="#820a0a" stroke-width="2.76" id="svg_22"/>
   <path d="m160.35999,49.87c-69.911,0 -126.62,54.731 -126.62,122.19c0,6.854 0.59,13.573 1.71,20.122l34.79,-30.187l62.996,-28l47,-2.0003l33,14s33,15 36,19s26,25 26,25l8.469,9.906c2.162,-8.943 3.312,-18.268 3.312,-27.844c0,-67.456 -56.749,-122.19 -126.66,-122.19l0.003,0.0033z" fill="#ececec" stroke="#ccc" stroke-width="2.99" id="svg_23"/>
   <path d="m36.37999,158.53c4.93,-48.171 42.89,-90.467 92.329,-102.88c6.934,-1.746 22.785,-4.11 27.577,-4.118c1.626,-0.002 1.75,2.02 1.75,28.498l0,28.5l-5.75,0.006c-6.859,0.008 -25.168,3.122 -34.25,5.8258c-25.956,7.7268 -49.386,21.525 -74.906,44.109l-7.41,6.559l0.66,-6.5l0,0.0002z" fill="#fd5" stroke="#dab619" stroke-width="2.76" id="svg_24"/>
   <path d="m279.52999,159.83c-2.75,-2.468 -9.275,-7.742 -14.5,-11.719c-31.328,-23.85 -63.727,-37.137 -95.75,-39.269l-9.25,-0.616l0,-56.974l8.75,0.708c12.053,0.976 23.227,3.212 33.043,6.613c39.555,13.705 68.76,44.53 79.543,83.955c1.721,6.293 4.14,20.867 3.555,21.42c-0.215,0.203 -2.641,-1.65 -5.391,-4.118z" fill="#bcd35f" stroke="#879a3a" stroke-width="2.76" id="svg_25"/>
   <g id="svg_26">
    <circle transform="matrix(-0.24852,-0.33228,-0.1271,0.32945,-109.94,135.48) " cx="-487.041461" cy="-250.187454" r="41.429001" fill="#eac093" stroke="url(#m)" stroke-width="5.8772" id="svg_27"/>
    <circle transform="matrix(0.1093,0.14302,0.023161,-0.18631,-190.38,78.7) " cx="1983.973374" cy="769.015017" r="41.429001" fill="url(#n)" id="svg_28"/>
   </g>
   <g transform="matrix(-1,0,0,1,315.96,537.67) " id="svg_29">
    <circle transform="matrix(-0.24852,-0.33228,-0.1271,0.32945,-109.94,135.48) " cx="79.067996" cy="-1311.238091" r="41.429001" fill="#eac093" stroke="url(#m)" stroke-width="5.8772" id="svg_30"/>
    <circle transform="matrix(0.1093,0.14302,0.023161,-0.18631,-190.38,78.7) " cx="1412.125828" cy="3215.927942" r="41.429001" fill="url(#n)" id="svg_31"/>
   </g>
   <path d="m161.22999,173c5.702,10.917 18.723,1.747 27.553,4.376c1.6202,10.468 15.949,17.846 24.05,7.762c7.952,-4.363 14.746,5.631 19.396,11.112c5.52,7.309 15.037,8.523 23.33,6.155c8.273,-0.046 -9.832,19.599 3.995,17.011c5.471,-5.213 12.521,0.977 6.016,6.23c-2.932,3.58 -3.275,10.71 1.63,3.78c6.725,-9.354 16.421,-18.741 15.688,-31.179c-7.831,-15.666 -21.927,-28.916 -39.488,-32.409c-11.318,-2.818 -22.898,-4.47 -34.527,-4.912c-11.666,-1.26 -21.825,-7.865 -33.739,-7.268c-21.149,-2.442 -44.271,-6.998 -63.946,3.85c-11.187,5.177 -18.784,15.971 -30.854,19.524c-13.49,6.248 -29.96,5.243 -41.76,15.295c-10.38,4.753 -7.48,20.017 2.81,22.08c3.27,5.145 7.05,14.179 14.61,12.169c-5.15,-3.116 -6.66,-10.796 1.03,-6.606c10.78,-0.654 3.04,-13.947 6.41,-16.987c6.93,-1.401 14.26,-4.107 16.67,-10.33c9.81,0.646 23.22,3.572 24.42,-9.678c8.886,-8.451 22.832,1.686 31.904,-6.566c6.562,-6.863 16.54,-6.224 24.802,-3.409z" fill="#de996f" fill-rule="evenodd" filter="url(#q)" id="svg_32"/>
   <path d="m161.22999,165c5.702,10.917 18.723,1.747 27.553,4.376c1.6202,10.468 15.949,17.846 24.05,7.762c7.952,-4.363 14.746,5.631 19.396,11.112c5.52,7.309 15.037,8.523 23.33,6.155c8.273,-0.046 -9.832,19.599 3.995,17.011c5.471,-5.213 12.521,0.977 6.016,6.235c-2.932,3.573 -3.275,10.705 1.63,3.775c6.725,-9.354 16.421,-18.741 15.688,-31.179c-7.831,-15.666 -21.927,-28.916 -39.488,-32.409c-11.318,-2.818 -22.898,-4.47 -34.527,-4.912c-11.666,-1.26 -21.825,-7.865 -33.739,-7.268c-21.149,-2.442 -44.271,-6.998 -63.946,3.85c-11.187,5.177 -18.784,15.971 -30.854,19.524c-13.49,6.248 -29.96,5.243 -41.76,15.295c-10.38,4.753 -7.48,20.017 2.81,22.08c3.27,5.145 7.05,14.18 14.61,12.166c-5.15,-3.113 -6.66,-10.793 1.03,-6.603c10.78,-0.654 3.04,-13.947 6.41,-16.987c6.93,-1.401 14.26,-4.107 16.67,-10.33c9.81,0.646 23.22,3.572 24.42,-9.678c8.886,-8.451 22.832,1.686 31.904,-6.566c6.562,-6.863 16.54,-6.224 24.802,-3.409z" fill-rule="evenodd" stroke="#000" stroke-width="1px" id="svg_33"/>
   <path d="m161.22999,165c5.702,10.917 18.723,1.747 27.553,4.376c1.6202,10.468 15.949,17.846 24.05,7.762c7.952,-4.363 14.746,5.631 19.396,11.112c5.52,7.309 15.037,8.523 23.33,6.155c8.273,-0.046 -9.832,19.599 3.995,17.011c5.471,-5.213 12.521,0.977 6.016,6.235c-2.932,3.573 -3.275,10.705 1.63,3.775c6.725,-9.354 16.421,-18.741 15.688,-31.179c-7.831,-15.666 -21.927,-28.916 -39.488,-32.409c-11.318,-2.818 -22.898,-4.47 -34.527,-4.912c-11.666,-1.26 -21.825,-7.865 -33.739,-7.268c-21.149,-2.442 -44.271,-6.998 -63.946,3.85c-11.187,5.177 -18.784,15.971 -30.854,19.524c-13.49,6.248 -29.96,5.243 -41.76,15.295c-10.38,4.753 -7.48,20.017 2.81,22.08c3.27,5.145 7.05,14.18 14.61,12.166c-5.15,-3.113 -6.66,-10.793 1.03,-6.603c10.78,-0.654 3.04,-13.947 6.41,-16.987c6.93,-1.401 14.26,-4.107 16.67,-10.33c9.81,0.646 23.22,3.572 24.42,-9.678c8.886,-8.451 22.832,1.686 31.904,-6.566c6.562,-6.863 16.54,-6.224 24.802,-3.409z" fill="none" stroke="#4b4b4b" stroke-width="2.76" id="svg_34"/>
   <path d="m291.76999,210.99l5.507,-4.689l1.447,-28.68l-5.944,-8.817c-85.439,-76.407 -179.91,-77.712 -262.59,0l-5.94,11.756l0.68,22.241l5.08,8.684c83.322,-75.458 176.32,-74.179 261.76,-0.495z" fill="#ececec" fill-rule="evenodd" stroke="#ccc" stroke-width="2.7802" id="svg_35"/>
   <path d="m119.86999,400.72c7.563,19.02 13.186,38.04 16.109,57.05l-10.404,11.16l-0.332,2.05l21.163,-0.05c-0.29,-3.84 -2.736,-8.31 -3.026,-14.16c2.401,-15.25 6.828,-25.84 10.884,-37.28l-34.394,-18.77z" fill-rule="evenodd" stroke="#000" stroke-width="0.93358px" id="svg_36"/>
   <path d="m55.58399,240.68778c22.794,29.91689 61.226,49.59004 104.78,49.59004c43.56,0 82.02,-19.67315 104.82,-49.59004c-25.59,23.54116 -63.08,38.40244 -104.82,38.40244c-41.73,0 -79.193,-14.86128 -104.78,-38.40244z" fill="#e0a075" filter="url(#r)" id="svg_37"/>
   <g transform="matrix(0.98696,-0.16099,0.16099,0.98696,-116.46,71.301) " id="svg_38">
    <g transform="matrix(-0.78007,0.62569,0.62569,0.78007,204.08,581.23) " fill-rule="evenodd" id="svg_39">
     <path d="m-157.256326,-236.137374l31.449,18.166l3.5,0.5l2,3.5l11.366,14.454l-6.3723,6.0483l-3.4934,-9.0026l2.5,5l-5,1.5l-4.5,-6l-2,-6s-19.819,-19.054 -40.819,-17.554l11.3697,-10.6117z" fill="#eac093" stroke="#b98663" stroke-width="2.76" id="svg_40"/>
     <path d="m-176.923326,-234.057374l3.12,9.09c21,-1.5 46,17 46,17l2,6l4.5,6l1.97,-0.59l-3.88,-4.22l-3.9,-10.94c-16.86,-15.2 -40.33,-20.68 -49.81,-22.34zm58.31,29.06l1,3.97l3.5518,4.842l1.2165,-0.72419l-0.11829,-2.4378l-5.65001,-5.65001zm1.47,5.81l0.43,1.84l0.41,-0.12l-0.84,-1.72z" fill="#df9f75" id="svg_41"/>
     <path d="m-173.393326,-224.617374c4.04,-0.29 7.8142,-0.20067 11.934,0.70933l5.16,-12.37l-18.78,-4.8409l-18.224,-0.78562" fill="#c83737" stroke="#820a0a" stroke-width="2.76" id="svg_42"/>
    </g>
   </g>
   <path d="m207.29999,245.99l-94.152,-0.50508c0.662,0.08 44.849,54.35 94.152,0.50508z" fill="#d35f5f" fill-rule="evenodd" stroke="#e08662" stroke-width="1px" id="svg_43"/>
   <g transform="matrix(-0.86669,-0.49884,0.49884,-0.86669,313.49,1522.6) " id="svg_44">
    <g transform="matrix(-0.78007,0.62569,0.62569,0.78007,204.08,581.23) " id="svg_45">
     <path d="m-140.290714,635.593458l-1.4831,8.5384c21,-1.5 44.235,17.273 44.235,17.273l2,6l4.5,6l1.97,-0.59l-3.88,-4.22l-3.9,-10.94c-16.86,-15.2 -33.962,-20.402 -43.442,-22.062l0.0001,0.0006zm51.942,28.782l1,3.97l10.81,13.06l2.69,-1.56l-8.85,-9.82l-5.65,-5.65zm1.47,5.81l0.43,1.84l0.41,-0.12l-0.84,-1.72z" fill="#df9f75" fill-rule="evenodd" id="svg_46"/>
     <g fill-rule="evenodd" stroke-width="2.76" id="svg_47">
      <path d="m-126.993704,633.233458l31.449,18.166c2.1731,0.9548 8.9593,4.888 8.9593,4.888l21.381,10.004l-11.34,15.108l-12,-14.5l2.5,5l-5,1.5l-4.5,-6l-2,-6s-19.819,-19.054 -40.819,-17.554l11.3697,-10.612z" fill="#eac093" stroke="#b98663" id="svg_48"/>
      <path d="m-143.130714,644.753458c4.04,-0.29 7.8142,-0.20067 11.934,0.70933l5.16,-12.37l-14.761,-4.5602" fill="#c83737" stroke="#820a0a" id="svg_49"/>
     </g>
     <rect transform="matrix(0.69175,-0.72214,-0.72214,-0.69175,0,0) " x="-540.411677" y="-415.388694" width="2.8571" height="16.786" fill="#df9f75" id="svg_50"/>
     <rect transform="matrix(0.5838,-0.81189,-0.89461,-0.44684,0,0) " x="-637.851355" y="-339.927504" width="2.7737" height="14.104" fill="#df9f75" id="svg_51"/>
     <rect transform="matrix(0.68714,-0.72653,-0.82682,-0.56247,0,0) " x="-604.566317" y="-416.54265" width="2.7737" height="14.104" fill="#df9f75" id="svg_52"/>
    </g>
   </g>
  </g>
 </g>
</svg>